<?xml version="1.0" encoding="UTF-8" standalone="no"?>
<svg
   version="1.0"
   width="3637.000000pt"
   height="400.000000pt"
   viewBox="0 0 3637.000000 400.000000"
   preserveAspectRatio="xMidYMid meet"
   id="svg15"
   sodipodi:docname="wave_bg_header.svg"
   inkscape:version="1.1.2 (b8e25be8, 2022-02-05)"
   xmlns:inkscape="http://www.inkscape.org/namespaces/inkscape"
   xmlns:sodipodi="http://sodipodi.sourceforge.net/DTD/sodipodi-0.dtd"
   xmlns="http://www.w3.org/2000/svg"
   xmlns:svg="http://www.w3.org/2000/svg">
  <defs
     id="defs19" />
  <sodipodi:namedview
     id="namedview17"
     pagecolor="#505050"
     bordercolor="#eeeeee"
     borderopacity="1"
     inkscape:pageshadow="0"
     inkscape:pageopacity="0"
     inkscape:pagecheckerboard="0"
     inkscape:document-units="pt"
     showgrid="false"
     inkscape:snap-nodes="false"
     inkscape:snap-bbox="true"
     inkscape:snap-others="true"
     inkscape:snap-center="true"
     inkscape:zoom="0.35291319"
     inkscape:cx="3928.7282"
     inkscape:cy="575.21228"
     inkscape:window-width="1440"
     inkscape:window-height="900"
     inkscape:window-x="0"
     inkscape:window-y="0"
     inkscape:window-maximized="0"
     inkscape:current-layer="g13" />
  <g
     transform="matrix(0.1,0,0,0.1,8.9934256e-5,12.849946)"
     fill="#000000"
     stroke="none"
     id="g13">
    <path
       d="m 9475,3822 c 718,-185 1288,-392 2598,-944 1261,-530 1780,-738 2457,-980 2521,-903 5321,-1477 8720,-1787 1263,-116 2443,-141 3570,-76 3204,185 6077,1046 8550,2563 257,158 892,583 945,633 5,5 -11,3 -35,-5 -844,-278 -2113,-630 -3158,-875 -2827,-665 -5735,-1059 -8722,-1181 -2660,-108 -5045,98 -7415,641 -986,226 -1810,460 -3555,1009 -889,280 -1150,360 -1550,475 -924,266 -1581,420 -2290,534 -359,58 -368,58 -115,-7 z"
       id="path9" />
    <path
       d="m 9377.291,3872.6939 c -116.777,78.6137 2216.799,-440.5633 3548.766,-882.7243 1306.095,-452.6951 2719.145,-850.4806 3753.101,-1089.839 936.249,-252.3501 3432.604,-778.9897 6657.668,-766.8858 1404.725,19.2837 2488.094,103.799 3615.094,220.3356 1823.934,144.6079 4163.791,497.187 6838.752,1172.6832 633.993,151.2679 1224.342,301.491 2509.303,715.0207 18.465,610.8828 294.636,744.4787 -37.996,1069.4763 -27156.3329,548.7483 578.937,72.2451 -26885.2094,24.2235 -5.6404,-472.0394 -1.0497,3.637 0.5214,-462.2902 z"
       id="path9-8"
       sodipodi:nodetypes="cccccccccc"
       style="fill:#ececec" />
    <path
       d="M 4518,3610 C 3345,3286 2296,2792 1355,2122 865,1773 365,1328 52,964 L 0,903 2,502 5,101 97,223 c 358,478 861,1017 1388,1488 888,793 1880,1417 2895,1819 107,42 225,87 263,99 37,13 67,25 67,27 0,7 -8,5 -192,-46 z"
       id="path11" />
    <path
       d="M 9369.6269,4338.3676 C 21.870048,4324.917 9372.6319,4350.0868 -3.093533,4321.316 0.09078216,1830.1447 6.043282,4336.2828 7.6861416,1715.0909 l 2,-401.0001 3.0000004,-400.99994 C 543.47535,1504.9411 1147.1811,2041.5107 1745.799,2401.2218 c 1159.7278,718.8924 2137.2441,1007.2869 2979.3264,1267.2473 2454.7396,574.1543 4611.6282,188.7745 4649.6282,200.7745 -7.9538,496.5124 -5.9969,-19.855 -5.1267,469.124 z"
       id="path11-5"
       style="fill:#f2f2f2"
       sodipodi:nodetypes="ccccccccc" />
  </g>
</svg>
