<?xml version="1.0" encoding="UTF-8" standalone="no"?>
<!-- Created with Inkscape (http://www.inkscape.org/) -->

<svg
   width="591.99701mm"
   height="295.38449mm"
   viewBox="0 0 591.99701 295.38449"
   version="1.1"
   id="svg709"
   inkscape:version="1.1.2 (b8e25be8, 2022-02-05)"
   sodipodi:docname="img_back_3.svg"
   xmlns:inkscape="http://www.inkscape.org/namespaces/inkscape"
   xmlns:sodipodi="http://sodipodi.sourceforge.net/DTD/sodipodi-0.dtd"
   xmlns="http://www.w3.org/2000/svg"
   xmlns:svg="http://www.w3.org/2000/svg">
  <sodipodi:namedview
     id="namedview711"
     pagecolor="#505050"
     bordercolor="#eeeeee"
     borderopacity="1"
     inkscape:pageshadow="0"
     inkscape:pageopacity="0"
     inkscape:pagecheckerboard="0"
     inkscape:document-units="mm"
     showgrid="false"
     inkscape:zoom="0.46834596"
     inkscape:cx="1151.9262"
     inkscape:cy="587.17279"
     inkscape:window-width="1366"
     inkscape:window-height="1024"
     inkscape:window-x="0"
     inkscape:window-y="0"
     inkscape:window-maximized="0"
     inkscape:current-layer="layer1" />
  <defs
     id="defs706" />
  <g
     inkscape:label="Calque 1"
     inkscape:groupmode="layer"
     id="layer1"
     transform="translate(150.78804,35.596578)">
    <path
       d="m 421.99902,-20.169966 c 57.00018,43.793435 -34.52201,7.977664 1.12986,36.739697 6.40106,4.93051 12.25355,-0.870823 5.94228,14.769835 -8.67173,9.822678 1.47225,20.475909 -3.7764,27.746849 -3.51235,9.661 7.43019,15.36562 -6.13834,28.9769 -5.54328,10.53042 15.24613,10.89365 2.49794,31.592835 -5.48539,27.19584 -20.44666,69.47365 -3.82482,90.82008 4.90828,4.91437 10.09015,9.90706 11.54377,14.78148 -2.99483,23.63126 -18.52171,21.25253 -28.75889,20.11971 -23.40054,1.24619 -9.98087,0.0902 -35.0893,0.70644 -28.11304,0.68791 -56.30492,1.40229 -86.62273,1.54675 -88.17399,0.42333 -176.44639,8.99822 -263.879273,10.25499 -42.478124,0.18741 0,0 -42.478124,0.18741 -31.06744,0.61633 -111.754973,15.22234 -120.259413,-53.24404 -7.43454,-30.78755 0,0 7.66921,-91.1225 19.06336,-117.9259872 6.62538,-132.821092 130.3393066,-141.813488 102.8533994,-2.72631 210.3901834,-7.209091 303.6448234,-7.48956 8.83074,0.01508 14.06128,0.500063 19.38946,1.167871 13.61229,1.703652 27.59604,3.364177 52.17584,3.577696 11.80756,0.103187 15.45695,1.002506 15.46674,2.156618"
       fill="#002d37"
       opacity="0.997"
       id="path793"
       style="stroke-width:0.264583"
       sodipodi:nodetypes="cccccccccccccccccccc" />
  </g>
</svg>
