<?xml version="1.0" encoding="UTF-8" standalone="no"?>
<!-- Created with Inkscape (http://www.inkscape.org/) -->

<svg
   width="532.1615mm"
   height="290.95813mm"
   viewBox="0 0 532.16149 290.95813"
   version="1.1"
   id="svg5"
   sodipodi:docname="mask_2_sag.svg"
   inkscape:version="1.1.2 (b8e25be8, 2022-02-05)"
   xmlns:inkscape="http://www.inkscape.org/namespaces/inkscape"
   xmlns:sodipodi="http://sodipodi.sourceforge.net/DTD/sodipodi-0.dtd"
   xmlns="http://www.w3.org/2000/svg"
   xmlns:svg="http://www.w3.org/2000/svg">
  <sodipodi:namedview
     id="namedview7"
     pagecolor="#505050"
     bordercolor="#eeeeee"
     borderopacity="1"
     inkscape:pageshadow="0"
     inkscape:pageopacity="0"
     inkscape:pagecheckerboard="0"
     inkscape:document-units="mm"
     showgrid="false"
     inkscape:zoom="0.94700757"
     inkscape:cx="175.28899"
     inkscape:cy="876.44495"
     inkscape:window-width="1366"
     inkscape:window-height="1024"
     inkscape:window-x="0"
     inkscape:window-y="0"
     inkscape:window-maximized="0"
     inkscape:current-layer="layer1" />
  <defs
     id="defs2">
    <clipPath
       clipPathUnits="userSpaceOnUse"
       id="clipPath213">
      <path
         style="fill:none;stroke:#000000;stroke-width:0.264583px;stroke-linecap:butt;stroke-linejoin:miter;stroke-opacity:1"
         d="M -153.13949,-31.619303 V 262.1014 h 532.12761 l 0.0339,-293.720703 z"
         id="path215" />
    </clipPath>
  </defs>
  <g
     inkscape:label="Calque 1"
     inkscape:groupmode="layer"
     id="layer1"
     transform="translate(153.13949,29.81653)">
    <path
       d="m 401.08901,-13.930118 c -0.31221,7.9875056 -13.63266,11.0659326 -8.44021,18.9706246 3.39646,5.1686354 1.79599,10.3933624 8.44021,15.5093464 6.40106,4.93051 0.38999,9.862873 5.94228,14.769835 1.64041,1.442773 -2.63446,2.94984 -3.46287,4.431242 -4.32382,7.77875 2.50746,15.566231 -0.31353,23.315612 -3.51235,9.660999 -1.04378,19.320139 -6.13834,28.976899 -5.54328,10.530419 1.68778,21.062419 2.49794,31.592839 0.54662,7.11729 -5.50334,14.24173 -7.53322,21.36722 -1.73673,6.09415 -2.31325,12.19227 -2.74188,18.28747 -0.62521,8.69183 -1.46447,17.38471 -0.66331,26.07548 0.76041,8.37089 -1.19062,16.78782 7.11359,25.08991 4.90828,4.91437 10.09015,9.90706 11.54377,14.78148 1.53194,5.15699 -7.3869,15.03495 -3.76634,20.11971 0.57546,0.81253 -17.03017,-0.42333 -24.99255,0 -23.40054,1.24619 -9.98087,0.0902 -35.0893,0.70644 -28.11304,0.68791 -37.75785,9.77229 -87.13636,5.14218 -101.52846,-9.3357 -163.473,-19.28145 -279.129128,-3.82652 -73.314082,8.33229 -62.516939,10.52708 -100.720652,9.54363 -19.74983,-0.50879 -34.68053,-9.1395 -33.63648,-11.56652 5.82612,-13.55249 -12.60713,-27.01396 -12.61692,-40.54766 0,-8.76591 -2.85909,-17.52098 -0.73184,-26.30514 2.21509,-9.12443 0.95594,-18.28113 1.15147,-27.42354 0.26326,-12.46505 7.88458,-24.91607 7.24958,-37.39382 -0.55563,-10.78601 -1.97141,-21.589999 0.90726,-32.371249 5.75786,-21.555071 -0.86863,-43.070459 -10.46057,-64.576057 -2.93449,-6.57172 7.33319,-15.2847144 0,-22.1271044 -0.59399,-0.550333 0.67231,-3.439583 0,-4.277783 -3.24988,-4.038336 -2.20504,8.087518 0,4.277783 32.70345,-15.4339206 65.18971,-9.4465586 79.651032,-10.0573286 49.405706,-3.48859 35.971239,-9.375061 60.24158,-12.681757 23.3882587,-1.45044 25.9465519,9.451959 41.956149,4.646089 26.724988,-7.496358 56.759933,-8.891478 89.327686,-4.978931 37.356153,4.64519 27.023253,-4.436801 60.931993,-5.328712 36.04683,-0.948002 91.73243,22.4227871 129.90625,22.4841701 37.05905,3.8482796 58.96782,-22.0876391 106.73867,-17.4099911"
       fill="#002d37"
       opacity="0.997"
       id="path9"
       style="stroke-width:0.264583"
       clip-path="url(#clipPath213)"
       sodipodi:nodetypes="cccccccccccccccccccccccccccccccccccc" />
  </g>
</svg>
