<svg id="Groupe_702" data-name="Groupe 702" xmlns="http://www.w3.org/2000/svg" xmlns:xlink="http://www.w3.org/1999/xlink" width="49.652" height="50.1" viewBox="0 0 49.652 50.1">
  <defs>
    <clipPath id="clip-path">
      <rect id="Rectangle_1167" data-name="Rectangle 1167" width="49.652" height="50.1" fill="#002835"/>
    </clipPath>
  </defs>
  <g id="Groupe_701" data-name="Groupe 701" transform="translate(0 0)" clip-path="url(#clip-path)">
    <path id="Tracé_2596" data-name="Tracé 2596" d="M48.778,48.35H44V38.692a.874.874,0,0,0-.875-.875H35.471a.874.874,0,0,0-.875.875V48.35H29.527V26.719l6.35-6.35h8.738a.875.875,0,1,0,0-1.749h-9.1a.874.874,0,0,0-.618.256L28.91,24.863a.849.849,0,0,0-.257-.052H21a.874.874,0,0,0-.875.875V48.35H15.057V8.1l6.349-6.351h8.738a.875.875,0,0,0,0-1.749h-9.1a.875.875,0,0,0-.618.256L13.82,6.863H6.529a.874.874,0,0,0-.875.875V48.35H.875a.875.875,0,1,0,0,1.749h47.9a.875.875,0,1,0,0-1.749M7.4,24.712l5.9-6.9v5.767a.853.853,0,0,0-.355.236L7.4,30.3Zm0,8.279,5.9-6.9v5.768a.849.849,0,0,0-.355.236L7.4,38.579Zm5.9-17.686a.856.856,0,0,0-.355.236L7.4,22.021V16.433l5.9-6.9ZM7.4,41.269l5.9-6.9v5.767a.853.853,0,0,0-.355.236L7.4,46.858ZM11.8,8.613,7.4,13.743V8.613ZM8.429,48.35l4.878-5.7v5.7Zm13.445-21.79h5.9V48.35h-5.9ZM36.346,39.567h5.9V48.35h-5.9Z" transform="translate(0 0)" fill="#002835"/>
    <path id="Tracé_2597" data-name="Tracé 2597" d="M54.952,13.667a.875.875,0,0,0,0,1.749h5.831a.875.875,0,0,0,0-1.749Z" transform="translate(-32.789 -8.287)" fill="#afb82b"/>
    <path id="Tracé_2599" data-name="Tracé 2599" d="M.875,0a.875.875,0,0,0,0,1.749H6.706A.875.875,0,0,0,6.706,0Z" transform="translate(25.953 2.464) rotate(90)" fill="#afb82b"/>
    <path id="Tracé_2600" data-name="Tracé 2600" d="M54.952,13.667a.875.875,0,0,0,0,1.749h5.831a.875.875,0,0,0,0-1.749Z" transform="translate(-18.316 10.333)" fill="#afb82b"/>
    <path id="Tracé_2601" data-name="Tracé 2601" d="M.875,0a.875.875,0,0,0,0,1.749H6.706A.875.875,0,0,0,6.706,0Z" transform="translate(40.425 21.084) rotate(90)" fill="#afb82b"/>
  </g>
</svg>
