<svg id="Groupe_695" data-name="Groupe 695" xmlns="http://www.w3.org/2000/svg" xmlns:xlink="http://www.w3.org/1999/xlink" width="38.29" height="41.125" viewBox="0 0 38.29 41.125">
  <defs>
    <clipPath id="clip-path">
      <rect id="Rectangle_1164" data-name="Rectangle 1164" width="38.29" height="41.125" fill="#002835"/>
    </clipPath>
  </defs>
  <g id="Groupe_694" data-name="Groupe 694" clip-path="url(#clip-path)">
    <path id="Tracé_2580" data-name="Tracé 2580" d="M9.412,0C4.213.01-.009,3.623,0,8.053s4.245,8.026,9.444,8.016a10.8,10.8,0,0,0,1.458-.1l4.156,2.515a.679.679,0,0,0,1.03-.582l-.008-4.182a7.509,7.509,0,0,0,2.776-5.7C18.848,3.585,14.611-.01,9.412,0m5.569,12.862a.681.681,0,0,0-.259.535l.006,3.3L11.4,14.677a.677.677,0,0,0-.353-.1.665.665,0,0,0-.1.008,9.627,9.627,0,0,1-1.5.123c-4.45.009-8.076-2.979-8.083-6.66S4.964,1.367,9.415,1.358s8.077,2.979,8.084,6.66a6.138,6.138,0,0,1-2.518,4.844" transform="translate(0 0)" fill="#002835"/>
    <path id="Tracé_2581" data-name="Tracé 2581" d="M13.463,21.719a1.445,1.445,0,1,0,1.448,1.442,1.445,1.445,0,0,0-1.448-1.442" transform="translate(-8.348 -15.083)" fill="#002835"/>
    <path id="Tracé_2582" data-name="Tracé 2582" d="M27.569,21.691a1.445,1.445,0,1,0,1.448,1.442,1.445,1.445,0,0,0-1.448-1.442" transform="translate(-18.144 -15.064)" fill="#002835"/>
    <path id="Tracé_2583" data-name="Tracé 2583" d="M41.676,21.663a1.445,1.445,0,1,0,1.448,1.442,1.445,1.445,0,0,0-1.448-1.442" transform="translate(-27.941 -15.044)" fill="#002835"/>
    <path id="Tracé_2584" data-name="Tracé 2584" d="M65.7,58.762a8.954,8.954,0,1,0-8.869.018,8.85,8.85,0,0,0-7.093,8.679l0,2.189a.679.679,0,1,0,1.358,0l0-2.189a7.488,7.488,0,0,1,7.465-7.494l5.413-.011a7.488,7.488,0,0,1,7.495,7.465l0,2.189a.679.679,0,0,0,1.358,0l0-2.189A8.85,8.85,0,0,0,65.7,58.762M53.65,51.018A7.6,7.6,0,1,1,61.262,58.6a7.605,7.605,0,0,1-7.612-7.581" transform="translate(-34.539 -29.201)" fill="#002835"/>
  </g>
</svg>
